<svg xmlns="http://www.w3.org/2000/svg" width="1600" height="600" viewBox="0 0 1600 600" role="img" aria-labelledby="title desc">
  <title id="title">GitHub Visual Assets</title><desc id="desc">Abstract geospatial, research, AI and software visual system banner.</desc>
  <defs>
    <linearGradient id="bg" x1="0" y1="0" x2="1" y2="1"><stop stop-color="#07111f"/><stop offset="0.55" stop-color="#0f2a4a"/><stop offset="1" stop-color="#172554"/></linearGradient>
    <radialGradient id="glow" cx="50%" cy="50%" r="50%"><stop stop-color="#38bdf8" stop-opacity=".48"/><stop offset="1" stop-color="#38bdf8" stop-opacity="0"/></radialGradient>
    <pattern id="grid" width="48" height="48" patternUnits="userSpaceOnUse"><path d="M48 0H0V48" fill="none" stroke="#93c5fd" stroke-opacity=".08"/></pattern>
  </defs>
  <rect width="1600" height="600" rx="34" fill="url(#bg)"/>
  <rect width="1600" height="600" rx="34" fill="url(#grid)"/>
  <circle cx="1240" cy="300" r="360" fill="url(#glow)"/>
  <g fill="none" stroke-linecap="round">
    <circle cx="1260" cy="300" r="170" stroke="#38bdf8" stroke-width="3" stroke-opacity=".55"/>
    <ellipse cx="1260" cy="300" rx="170" ry="68" stroke="#60a5fa" stroke-width="2" stroke-opacity=".7" transform="rotate(-18 1260 300)"/>
    <path d="M1095 300c88-64 241-57 330 16M1118 224c82 45 212 49 292 0M1134 378c71-42 185-45 260-4" stroke="#7dd3fc" stroke-width="2" stroke-opacity=".38"/>
    <path d="M1128 174c72 51 170 79 274 62M1117 426c92-54 194-64 289-32" stroke="#c4b5fd" stroke-width="2" stroke-opacity=".25"/>
  </g>
  <g fill="#f8fafc">
    <circle cx="1127" cy="219" r="7"/><circle cx="1367" cy="210" r="7"/><circle cx="1420" cy="339" r="7"/><circle cx="1195" cy="410" r="7"/>
  </g>
  <g stroke="#a5b4fc" stroke-width="3" stroke-opacity=".65"><path d="M1127 219l240-9 53 129-225 71z" fill="none"/></g>
  <g font-family="Inter,Segoe UI,Arial,sans-serif">
    <text x="120" y="205" fill="#7dd3fc" font-size="24" font-weight="700" letter-spacing="5">VISUAL SYSTEM</text>
    <text x="120" y="292" fill="#f8fafc" font-size="68" font-weight="800">GitHub Visual Assets</text>
    <text x="120" y="348" fill="#cbd5e1" font-size="28">Geo · Research · AI · Software</text>
    <text x="120" y="410" fill="#94a3b8" font-size="20">Reusable assets · consistent identity · traceable provenance</text>
  </g>
  <g transform="translate(120 462)">
    <rect width="116" height="44" rx="22" fill="#0ea5e9"/><text x="58" y="29" text-anchor="middle" fill="white" font-family="Inter,Segoe UI,Arial,sans-serif" font-size="17" font-weight="700">GEO</text>
    <rect x="130" width="150" height="44" rx="22" fill="#4f46e5"/><text x="205" y="29" text-anchor="middle" fill="white" font-family="Inter,Segoe UI,Arial,sans-serif" font-size="17" font-weight="700">RESEARCH</text>
    <rect x="294" width="96" height="44" rx="22" fill="#7c3aed"/><text x="342" y="29" text-anchor="middle" fill="white" font-family="Inter,Segoe UI,Arial,sans-serif" font-size="17" font-weight="700">AI</text>
    <rect x="404" width="142" height="44" rx="22" fill="#0f766e"/><text x="475" y="29" text-anchor="middle" fill="white" font-family="Inter,Segoe UI,Arial,sans-serif" font-size="17" font-weight="700">SOFTWARE</text>
  </g>
</svg>
